<svg xmlns="http://www.w3.org/2000/svg" xmlns:xlink="http://www.w3.org/1999/xlink" width="1600" zoomAndPan="magnify" viewBox="0 0 1200 30.000001" height="40" preserveAspectRatio="xMidYMid meet" version="1.0"><defs><clipPath id="51cf5c8985"><path d="M 508.292969 5.804688 L 610.054688 5.804688 L 610.054688 23.226562 L 508.292969 23.226562 Z M 508.292969 5.804688 " clip-rule="nonzero"/></clipPath><clipPath id="fd5e938af5"><path d="M 610.449219 10.148438 L 688.960938 10.148438 L 688.960938 14.621094 L 610.449219 14.621094 Z M 610.449219 10.148438 " clip-rule="nonzero"/></clipPath><clipPath id="0942af77a7"><path d="M 313 11 L 427.726562 11 L 427.726562 16 L 313 16 Z M 313 11 " clip-rule="nonzero"/></clipPath><clipPath id="e396550709"><path d="M 297 2.902344 L 305 2.902344 L 305 23.226562 L 297 23.226562 Z M 297 2.902344 " clip-rule="nonzero"/></clipPath><clipPath id="606923a54c"><path d="M 304 2.902344 L 312 2.902344 L 312 23.226562 L 304 23.226562 Z M 304 2.902344 " clip-rule="nonzero"/></clipPath><clipPath id="dfdffb3b79"><path d="M 822 11 L 936.996094 11 L 936.996094 16 L 822 16 Z M 822 11 " clip-rule="nonzero"/></clipPath><clipPath id="e6ef16d6b0"><path d="M 806 2.902344 L 815 2.902344 L 815 23.226562 L 806 23.226562 Z M 806 2.902344 " clip-rule="nonzero"/></clipPath><clipPath id="89da625b8a"><path d="M 813 2.902344 L 822 2.902344 L 822 23.226562 L 813 23.226562 Z M 813 2.902344 " clip-rule="nonzero"/></clipPath></defs><g clip-path="url(#51cf5c8985)"><path fill="#d3a100" d="M 576.320312 18.59375 C 575.425781 19.492188 573.800781 17.640625 573.546875 16.945312 C 573.058594 15.59375 572.785156 13.59375 573.9375 12.46875 C 574.207031 12.207031 575.109375 12.136719 576.035156 12.15625 C 576.414062 12.707031 576.726562 13.308594 576.960938 13.964844 C 577.503906 15.492188 577.558594 17.351562 576.320312 18.59375 Z M 559.917969 12.90625 C 560.9375 14.851562 560.675781 16 559.179688 17.109375 C 557.675781 16 557.417969 14.851562 558.4375 12.90625 C 558.648438 12.5 558.898438 12.105469 559.179688 11.71875 C 559.457031 12.105469 559.707031 12.5 559.917969 12.90625 Z M 544.417969 12.46875 C 545.570312 13.59375 545.296875 15.59375 544.808594 16.945312 C 544.554688 17.640625 542.929688 19.492188 542.035156 18.59375 C 540.796875 17.351562 540.851562 15.492188 541.394531 13.964844 C 541.628906 13.308594 541.941406 12.707031 542.320312 12.15625 C 543.246094 12.136719 544.148438 12.207031 544.417969 12.46875 Z M 609.296875 9.523438 C 607.453125 6.097656 603.335938 5.222656 599.773438 6.15625 C 596.941406 6.898438 593.214844 8.746094 592.773438 12 C 592.390625 14.792969 594.457031 16.828125 597.191406 16.832031 C 598.417969 16.835938 599.695312 16.4375 600.605469 15.59375 C 601.550781 14.71875 602.484375 12.527344 602.113281 11.273438 C 601.753906 10.070312 600.40625 9.726562 599.3125 10.273438 C 598.480469 10.6875 597.839844 11.878906 598.117188 12.933594 C 598.320312 13.722656 599.488281 14.042969 599.65625 14.828125 C 599.9375 16.152344 598.421875 16.066406 597.515625 15.738281 C 596.222656 15.277344 594.992188 14.28125 594.6875 12.867188 C 593.457031 7.082031 601.140625 6.125 604.988281 8.863281 C 608.417969 11.304688 608.847656 15.207031 606.785156 18.644531 C 603.96875 23.34375 597.121094 21.886719 593.183594 18.761719 C 590.0625 16.289062 588.222656 13.289062 584.371094 11.867188 C 582.382812 11.136719 579.976562 11.082031 577.796875 11.132812 C 575.675781 8.207031 571.722656 6.429688 568.226562 6.738281 C 564.976562 7.023438 561.78125 8.546875 559.300781 10.660156 C 559.257812 10.695312 559.21875 10.730469 559.179688 10.765625 C 559.136719 10.730469 559.097656 10.695312 559.054688 10.660156 C 556.574219 8.546875 553.378906 7.023438 550.128906 6.738281 C 546.632812 6.429688 542.683594 8.207031 540.558594 11.132812 C 538.378906 11.082031 535.972656 11.136719 533.984375 11.867188 C 530.132812 13.289062 528.292969 16.289062 525.171875 18.761719 C 521.234375 21.886719 514.386719 23.34375 511.570312 18.644531 C 509.507812 15.207031 509.9375 11.304688 513.367188 8.863281 C 517.214844 6.125 524.898438 7.082031 523.664062 12.867188 C 523.363281 14.28125 522.132812 15.277344 520.839844 15.738281 C 519.933594 16.066406 518.417969 16.152344 518.699219 14.828125 C 518.867188 14.042969 520.035156 13.722656 520.238281 12.933594 C 520.515625 11.878906 519.875 10.6875 519.042969 10.273438 C 517.949219 9.726562 516.601562 10.070312 516.242188 11.273438 C 515.871094 12.527344 516.804688 14.71875 517.75 15.59375 C 518.660156 16.4375 519.9375 16.835938 521.164062 16.832031 C 523.898438 16.828125 525.964844 14.792969 525.582031 12 C 525.136719 8.746094 521.414062 6.898438 518.582031 6.15625 C 515.019531 5.222656 510.902344 6.097656 509.058594 9.523438 C 507.308594 12.773438 508.804688 17.617188 511.5 19.90625 C 514.199219 22.195312 517.605469 23.453125 521.148438 23.199219 C 525.3125 22.90625 528.140625 19.585938 530.945312 16.886719 C 533.515625 14.414062 536.4375 12.347656 539.792969 12.402344 C 539.582031 12.839844 539.402344 13.296875 539.273438 13.769531 C 538.535156 16.460938 540.503906 18.289062 542.703125 19.3125 C 545.519531 20.621094 547.113281 18.175781 547.070312 15.503906 C 547.035156 13.351562 544.753906 11.972656 542.859375 11.453125 C 545.527344 8.332031 550.429688 7.195312 554.234375 8.164062 C 555.941406 8.59375 557.554688 9.753906 558.746094 11.171875 C 556.398438 13.546875 555.671875 17.007812 559.105469 19.351562 C 559.132812 19.367188 559.15625 19.371094 559.179688 19.363281 C 559.199219 19.371094 559.222656 19.367188 559.25 19.351562 C 562.679688 17.007812 561.957031 13.546875 559.609375 11.171875 C 560.800781 9.753906 562.414062 8.59375 564.121094 8.164062 C 567.925781 7.195312 572.828125 8.332031 575.496094 11.453125 C 573.597656 11.972656 571.316406 13.351562 571.285156 15.503906 C 571.242188 18.175781 572.835938 20.621094 575.648438 19.3125 C 577.851562 18.289062 579.820312 16.460938 579.082031 13.769531 C 578.953125 13.296875 578.773438 12.839844 578.5625 12.402344 C 581.917969 12.347656 584.835938 14.414062 587.410156 16.886719 C 590.214844 19.585938 593.042969 22.90625 597.207031 23.199219 C 600.75 23.453125 604.15625 22.195312 606.851562 19.90625 C 609.550781 17.617188 611.046875 12.773438 609.296875 9.523438 " fill-opacity="1" fill-rule="nonzero"/></g><path fill="#d3a100" d="M 507.613281 12.925781 L 487.871094 12.453125 L 507.628906 11.851562 C 507.71875 11.269531 507.945312 10.710938 508.304688 10.253906 L 429.800781 12.632812 L 508.210938 14.519531 C 507.882812 14.054688 507.683594 13.5 507.613281 12.925781 " fill-opacity="1" fill-rule="nonzero"/><g clip-path="url(#fd5e938af5)"><path fill="#d3a100" d="M 611.148438 12.925781 L 630.894531 12.453125 L 611.136719 11.851562 C 611.042969 11.269531 610.820312 10.710938 610.460938 10.253906 L 688.960938 12.632812 L 610.550781 14.519531 C 610.882812 14.054688 611.078125 13.5 611.148438 12.925781 " fill-opacity="1" fill-rule="nonzero"/></g><g clip-path="url(#0942af77a7)"><path fill="#cda548" d="M 313.558594 15.054688 L 370.417969 15.054688 C 427.277344 14.261719 427.277344 13.476562 427.277344 13.476562 C 427.277344 12.699219 351.464844 11.925781 313.558594 11.925781 Z M 313.558594 15.054688 " fill-opacity="1" fill-rule="nonzero"/></g><path fill="#cda548" d="M 295.835938 15.054688 L 238.980469 15.054688 C 182.121094 14.261719 182.121094 13.476562 182.121094 13.476562 C 182.121094 12.699219 257.933594 11.925781 295.835938 11.925781 Z M 295.835938 15.054688 " fill-opacity="1" fill-rule="nonzero"/><g clip-path="url(#e396550709)"><path fill="#cda548" d="M 304.746094 2.898438 L 304.6875 3.726562 C 304.585938 5.410156 304.410156 6.960938 304.152344 8.386719 C 303.890625 9.5 303.710938 10.132812 303.613281 10.28125 C 303.464844 10.65625 303.292969 10.992188 303.097656 11.285156 C 302.898438 11.578125 302.675781 11.832031 302.425781 12.046875 C 302.328125 12.191406 301.910156 12.445312 301.183594 12.800781 C 300.429688 13.121094 299.242188 13.351562 297.617188 13.492188 C 299.292969 13.550781 300.515625 13.71875 301.285156 13.992188 C 302.03125 14.296875 302.457031 14.515625 302.558594 14.648438 C 302.808594 14.84375 303.035156 15.074219 303.234375 15.34375 C 303.429688 15.613281 303.601562 15.921875 303.746094 16.273438 L 303.949219 16.816406 C 304.074219 17.199219 304.179688 17.609375 304.265625 18.042969 C 304.488281 19.125 304.652344 20.847656 304.765625 23.222656 L 304.746094 2.898438 " fill-opacity="1" fill-rule="nonzero"/></g><g clip-path="url(#606923a54c)"><path fill="#cda548" d="M 304.652344 2.898438 L 304.710938 3.726562 C 304.808594 5.410156 304.988281 6.960938 305.246094 8.386719 C 305.507812 9.5 305.683594 10.132812 305.78125 10.28125 C 305.929688 10.65625 306.105469 10.992188 306.300781 11.285156 C 306.5 11.578125 306.722656 11.832031 306.96875 12.046875 C 307.070312 12.191406 307.484375 12.445312 308.214844 12.800781 C 308.964844 13.121094 310.152344 13.351562 311.777344 13.492188 C 310.101562 13.550781 308.878906 13.71875 308.109375 13.992188 C 307.363281 14.296875 306.941406 14.515625 306.839844 14.648438 C 306.589844 14.84375 306.363281 15.074219 306.164062 15.34375 C 305.96875 15.613281 305.796875 15.921875 305.648438 16.273438 L 305.445312 16.816406 C 305.324219 17.199219 305.21875 17.609375 305.132812 18.042969 C 304.910156 19.125 304.742188 20.847656 304.632812 23.222656 L 304.652344 2.898438 " fill-opacity="1" fill-rule="nonzero"/></g><g clip-path="url(#dfdffb3b79)"><path fill="#cda548" d="M 822.828125 15.054688 L 879.6875 15.054688 C 936.542969 14.261719 936.542969 13.476562 936.542969 13.476562 C 936.542969 12.699219 860.734375 11.925781 822.828125 11.925781 Z M 822.828125 15.054688 " fill-opacity="1" fill-rule="nonzero"/></g><path fill="#cda548" d="M 805.105469 15.054688 L 748.246094 15.054688 C 691.390625 14.261719 691.390625 13.476562 691.390625 13.476562 C 691.390625 12.699219 767.199219 11.925781 805.105469 11.925781 Z M 805.105469 15.054688 " fill-opacity="1" fill-rule="nonzero"/><g clip-path="url(#e6ef16d6b0)"><path fill="#cda548" d="M 814.011719 2.898438 L 813.953125 3.726562 C 813.855469 5.410156 813.675781 6.960938 813.417969 8.386719 C 813.160156 9.5 812.980469 10.132812 812.882812 10.28125 C 812.734375 10.65625 812.5625 10.992188 812.363281 11.285156 C 812.164062 11.578125 811.941406 11.832031 811.695312 12.046875 C 811.59375 12.191406 811.179688 12.445312 810.449219 12.800781 C 809.699219 13.121094 808.511719 13.351562 806.886719 13.492188 C 808.5625 13.550781 809.785156 13.71875 810.554688 13.992188 C 811.300781 14.296875 811.726562 14.515625 811.824219 14.648438 C 812.074219 14.84375 812.300781 15.074219 812.5 15.34375 C 812.699219 15.613281 812.871094 15.921875 813.015625 16.273438 L 813.21875 16.816406 C 813.34375 17.199219 813.445312 17.609375 813.53125 18.042969 C 813.753906 19.125 813.921875 20.847656 814.03125 23.222656 L 814.011719 2.898438 " fill-opacity="1" fill-rule="nonzero"/></g><g clip-path="url(#89da625b8a)"><path fill="#cda548" d="M 813.921875 2.898438 L 813.980469 3.726562 C 814.078125 5.410156 814.257812 6.960938 814.515625 8.386719 C 814.773438 9.5 814.953125 10.132812 815.050781 10.28125 C 815.199219 10.65625 815.371094 10.992188 815.570312 11.285156 C 815.769531 11.578125 815.992188 11.832031 816.238281 12.046875 C 816.339844 12.191406 816.753906 12.445312 817.484375 12.800781 C 818.234375 13.121094 819.421875 13.351562 821.046875 13.492188 C 819.371094 13.550781 818.148438 13.71875 817.378906 13.992188 C 816.632812 14.296875 816.207031 14.515625 816.109375 14.648438 C 815.855469 14.84375 815.632812 15.074219 815.433594 15.34375 C 815.234375 15.613281 815.0625 15.921875 814.917969 16.273438 L 814.714844 16.816406 C 814.589844 17.199219 814.488281 17.609375 814.402344 18.042969 C 814.179688 19.125 814.011719 20.847656 813.902344 23.222656 L 813.921875 2.898438 " fill-opacity="1" fill-rule="nonzero"/></g></svg>