<svg xmlns="http://www.w3.org/2000/svg" xmlns:xlink="http://www.w3.org/1999/xlink" width="200" zoomAndPan="magnify" viewBox="0 0 150 37.5" height="50" preserveAspectRatio="xMidYMid meet" version="1.0"><defs><clipPath id="7d0edc1721"><path d="M 0.988281 3.726562 L 149.011719 3.726562 L 149.011719 32.542969 L 0.988281 32.542969 Z M 0.988281 3.726562 " clip-rule="nonzero"/></clipPath><clipPath id="4ff35b889e"><path d="M 74.96875 32.535156 C 78.875 32.535156 74.96875 23.210938 74.96875 23.210938 C 74.96875 23.210938 71.0625 32.535156 74.96875 32.535156 Z M 74.96875 18.40625 C 78.730469 9.796875 85.171875 11.066406 85.171875 11.066406 C 84.722656 9.613281 82.867188 9.523438 82.867188 9.523438 C 78.742188 6.625 76.199219 13.964844 76.199219 13.964844 C 76.445312 10.070312 79.535156 7.710938 79.535156 7.710938 C 78.734375 6.894531 76.683594 7.710938 76.683594 7.710938 C 76.683594 7.710938 77.320312 3.726562 74.96875 3.726562 C 72.617188 3.726562 73.253906 7.710938 73.253906 7.710938 C 73.253906 7.710938 71.203125 6.894531 70.402344 7.710938 C 70.402344 7.710938 73.492188 10.070312 73.738281 13.964844 C 73.738281 13.964844 71.195312 6.625 67.070312 9.523438 C 67.070312 9.523438 65.214844 9.613281 64.761719 11.066406 C 64.761719 11.066406 71.207031 9.796875 74.96875 18.40625 Z M 11.179688 19.925781 C 8.453125 16.65625 6.015625 16.710938 6.015625 16.710938 L 7.019531 19.058594 C 2.640625 17.917969 0.988281 23.890625 0.988281 23.890625 C 0.988281 23.890625 3.359375 21.707031 6.515625 21.707031 C 9.675781 21.707031 15.273438 24.527344 17.710938 24.527344 C 19.003906 24.527344 20.132812 24.527344 20.914062 24.527344 C 17.792969 24.371094 13.609375 22.835938 11.179688 19.925781 Z M 22.019531 24.527344 C 22.019531 24.527344 21.601562 24.527344 20.914062 24.527344 C 21.296875 24.550781 21.671875 24.550781 22.019531 24.527344 Z M 22.144531 23.882812 C 22.222656 23.886719 22.296875 23.890625 22.378906 23.890625 C 22.378906 23.890625 22.292969 23.890625 22.144531 23.882812 Z M 22.144531 23.882812 C 22.019531 23.878906 21.851562 23.871094 21.644531 23.855469 C 21.804688 23.871094 21.972656 23.882812 22.144531 23.882812 Z M 18.574219 18.039062 C 20.152344 18.039062 20.871094 19.621094 20.871094 19.621094 C 20.871094 19.621094 22.402344 17.402344 20.441406 15.710938 C 18.621094 14.140625 13.835938 15.28125 15.058594 19.621094 C 16.015625 23.03125 19.984375 23.714844 21.644531 23.855469 C 17.25 23.394531 17.074219 18.039062 18.574219 18.039062 Z M 31.207031 24.527344 C 31.273438 24.511719 30.96875 24.53125 30.472656 24.558594 C 30.761719 24.585938 31.015625 24.582031 31.207031 24.527344 Z M 25.320312 23.097656 C 24.246094 22.859375 22.019531 23.097656 22.019531 23.097656 C 22.019531 23.097656 24.601562 24.191406 25.824219 24.527344 C 26.699219 24.769531 29.210938 24.632812 30.472656 24.558594 C 28.917969 24.414062 26.230469 23.300781 25.320312 23.097656 Z M 33.933594 24.628906 C 32.496094 24.628906 30.632812 26.472656 30.632812 26.472656 C 30.632812 26.472656 34.746094 27.847656 38.8125 24.628906 C 39.097656 24.402344 35.367188 24.628906 33.933594 24.628906 Z M 31.207031 23.097656 C 27.328125 19.867188 23.3125 19.925781 23.3125 19.925781 C 23.3125 19.925781 25.679688 21.699219 26.683594 22.625 C 27.6875 23.550781 31.207031 23.097656 31.207031 23.097656 Z M 30.203125 18.140625 C 28.296875 13.871094 29.769531 9.535156 29.769531 9.535156 C 25.394531 10.488281 26.757812 16.492188 26.757812 16.492188 C 25.394531 15.492188 23.3125 16.492188 23.3125 16.492188 C 25.03125 16.421875 28.476562 19.488281 31.421875 21.933594 C 34.363281 24.382812 41.757812 23.835938 41.757812 23.835938 C 41.757812 23.835938 32.105469 22.410156 30.203125 18.140625 Z M 40.824219 22.625 C 37.804688 20.453125 35.296875 18.488281 35.726562 20.390625 C 36.15625 22.289062 40.824219 22.625 40.824219 22.625 Z M 57.117188 22.195312 C 57.402344 19.988281 58.34375 18.039062 58.34375 18.039062 C 53.546875 22.382812 56.828125 24.40625 57.117188 22.195312 Z M 57.117188 12.574219 C 57.117188 12.574219 55.035156 10.898438 54.027344 9.773438 C 53.023438 8.652344 50.011719 11.789062 57.117188 12.574219 Z M 56.328125 15.996094 C 56.328125 15.996094 53.527344 15.496094 51.300781 17.707031 C 49.078125 19.914062 46.707031 20.984375 44.554688 20.984375 C 42.402344 20.984375 40.894531 16.992188 43.910156 14.140625 C 43.910156 14.140625 41.742188 14.878906 41.398438 18.488281 C 41.054688 22.101562 45.558594 22.480469 47.425781 21.414062 C 49.292969 20.34375 52.234375 16.351562 56.328125 15.996094 Z M 67.277344 18.832031 C 66.175781 19.964844 67.542969 20.957031 67.542969 20.957031 C 67.496094 19.867188 68.757812 19.421875 69.183594 20.128906 C 69.527344 20.710938 69.230469 21.882812 67.703125 21.6875 C 66.179688 21.492188 65.65625 18.1875 68.371094 18.140625 C 70.042969 18.113281 71.191406 19.457031 71.828125 20.5 C 70.085938 17.472656 67.59375 16.4375 65.175781 15.914062 C 61.886719 15.207031 59.550781 17.859375 59.265625 20.390625 C 58.976562 22.917969 59.859375 24.867188 61.601562 24.960938 C 63.34375 25.054688 63.414062 24.203125 63.414062 24.203125 C 62.984375 24.203125 61.984375 24.015625 61.984375 22.78125 C 61.984375 21.550781 63.207031 21.019531 64.273438 22.023438 C 65.261719 22.957031 64.9375 25.292969 61.839844 25.386719 C 58.738281 25.480469 57.40625 22.070312 58.34375 19.089844 C 59.285156 16.105469 65.039062 13.800781 69.324219 16.765625 C 71.550781 18.304688 72.554688 20.363281 73.007812 21.984375 C 72.53125 19.558594 71.734375 18.277344 70.089844 16.671875 C 67.507812 14.15625 64.722656 14.273438 61.996094 14.222656 C 61.894531 14.410156 58.265625 15.28125 55.96875 18.917969 C 53.671875 22.554688 53.3125 23.695312 51.660156 24.121094 C 51.660156 24.121094 52.234375 21.128906 52.234375 20.914062 C 52.234375 20.699219 49.796875 26.921875 43.335938 24.628906 C 43.335938 24.628906 45.058594 24.050781 45.488281 23.195312 C 45.488281 23.195312 39.675781 23.90625 38.097656 17.632812 L 39.601562 18.632812 C 39.601562 18.632812 38.453125 11.503906 46.996094 13.855469 C 46.996094 13.855469 43.835938 15.636719 43.835938 17.707031 C 43.835938 19.773438 47.140625 20.050781 48.933594 17.203125 C 50.726562 14.355469 53.886719 14.425781 53.886719 14.425781 C 53.886719 14.425781 48.574219 14.367188 47.855469 9.773438 L 48.933594 10.21875 C 48.933594 10.21875 48.070312 5.179688 51.015625 5.179688 C 53.957031 5.179688 53.527344 9.078125 51.375 9.007812 C 51.375 9.007812 53.398438 6.871094 51.375 6.871094 C 49.351562 6.871094 48.78125 14.429688 59.730469 13.859375 C 59.730469 13.859375 59.734375 13.855469 59.734375 13.855469 C 58.320312 13.207031 58.113281 11.800781 58.550781 10.753906 C 59.121094 9.378906 61.457031 9.476562 61.695312 10.894531 C 61.933594 12.316406 60.171875 12.175781 60.125 11.464844 C 60.074219 10.753906 60.550781 10.5625 60.550781 10.5625 C 60.125 10.042969 58.882812 10.328125 58.882812 11.746094 C 58.882812 13.167969 60.074219 13.6875 62.554688 13.6875 C 65.035156 13.6875 67.324219 13.785156 69.992188 15.960938 C 72.417969 17.941406 73.226562 21.511719 73.355469 23.925781 C 73.390625 24.367188 73.378906 24.628906 73.378906 24.628906 C 73.078125 23.335938 72.695312 22.242188 72.246094 21.304688 C 71.34375 19.648438 68.492188 17.582031 67.277344 18.832031 Z M 129.085938 24.527344 C 128.398438 24.527344 127.980469 24.527344 127.980469 24.527344 C 128.328125 24.550781 128.699219 24.550781 129.085938 24.527344 Z M 142.980469 19.058594 L 143.984375 16.710938 C 143.984375 16.710938 141.546875 16.65625 138.820312 19.925781 C 136.390625 22.835938 132.207031 24.371094 129.085938 24.527344 C 129.867188 24.527344 130.996094 24.527344 132.289062 24.527344 C 134.726562 24.527344 140.324219 21.707031 143.484375 21.707031 C 146.640625 21.707031 149.011719 23.890625 149.011719 23.890625 C 149.011719 23.890625 147.359375 17.917969 142.980469 19.058594 Z M 127.855469 23.882812 C 128.027344 23.882812 128.195312 23.871094 128.355469 23.855469 C 128.148438 23.871094 127.980469 23.878906 127.855469 23.882812 Z M 134.941406 19.621094 C 136.164062 15.28125 131.378906 14.140625 129.558594 15.710938 C 127.597656 17.402344 129.128906 19.621094 129.128906 19.621094 C 129.128906 19.621094 129.847656 18.039062 131.425781 18.039062 C 132.925781 18.039062 132.75 23.394531 128.355469 23.855469 C 130.015625 23.714844 133.984375 23.03125 134.941406 19.621094 Z M 127.855469 23.882812 C 127.707031 23.890625 127.621094 23.890625 127.621094 23.890625 C 127.703125 23.890625 127.777344 23.886719 127.855469 23.882812 Z M 118.792969 24.527344 C 118.984375 24.582031 119.238281 24.585938 119.527344 24.558594 C 119.03125 24.53125 118.726562 24.511719 118.792969 24.527344 Z M 124.679688 23.097656 C 123.769531 23.300781 121.082031 24.414062 119.527344 24.558594 C 120.789062 24.632812 123.300781 24.769531 124.175781 24.527344 C 125.398438 24.191406 127.980469 23.097656 127.980469 23.097656 C 127.980469 23.097656 125.753906 22.859375 124.679688 23.097656 Z M 111.1875 24.628906 C 115.253906 27.847656 119.367188 26.472656 119.367188 26.472656 C 119.367188 26.472656 117.503906 24.628906 116.066406 24.628906 C 114.632812 24.628906 110.902344 24.402344 111.1875 24.628906 Z M 123.316406 22.625 C 124.320312 21.699219 126.6875 19.925781 126.6875 19.925781 C 126.6875 19.925781 122.671875 19.867188 118.792969 23.097656 C 118.792969 23.097656 122.3125 23.550781 123.316406 22.625 Z M 126.6875 16.492188 C 126.6875 16.492188 124.605469 15.492188 123.242188 16.492188 C 123.242188 16.492188 124.605469 10.488281 120.230469 9.535156 C 120.230469 9.535156 121.703125 13.871094 119.796875 18.140625 C 117.894531 22.410156 108.242188 23.835938 108.242188 23.835938 C 108.242188 23.835938 115.636719 24.382812 118.578125 21.933594 C 121.523438 19.488281 124.96875 16.421875 126.6875 16.492188 Z M 114.273438 20.390625 C 114.703125 18.488281 112.195312 20.453125 109.175781 22.625 C 109.175781 22.625 113.84375 22.289062 114.273438 20.390625 Z M 91.65625 18.039062 C 91.65625 18.039062 92.597656 19.988281 92.882812 22.195312 C 93.171875 24.40625 96.453125 22.382812 91.65625 18.039062 Z M 108.601562 18.488281 C 108.257812 14.878906 106.089844 14.140625 106.089844 14.140625 C 109.105469 16.992188 107.597656 20.984375 105.445312 20.984375 C 103.292969 20.984375 100.921875 19.914062 98.699219 17.707031 C 96.472656 15.496094 93.671875 15.996094 93.671875 15.996094 C 97.765625 16.351562 100.707031 20.34375 102.574219 21.414062 C 104.441406 22.480469 108.945312 22.101562 108.601562 18.488281 Z M 106.664062 24.628906 C 100.203125 26.921875 97.765625 20.699219 97.765625 20.914062 C 97.765625 21.128906 98.339844 24.121094 98.339844 24.121094 C 96.6875 23.695312 96.328125 22.554688 94.03125 18.917969 C 91.734375 15.28125 88.105469 14.410156 88.003906 14.222656 C 85.28125 14.273438 82.492188 14.15625 79.910156 16.671875 C 78.265625 18.277344 77.46875 19.558594 76.992188 21.984375 C 77.445312 20.363281 78.449219 18.304688 80.675781 16.765625 C 84.960938 13.800781 90.714844 16.105469 91.65625 19.089844 C 92.59375 22.070312 91.257812 25.480469 88.160156 25.386719 C 85.0625 25.292969 84.738281 22.957031 85.726562 22.023438 C 86.792969 21.019531 88.015625 21.550781 88.015625 22.78125 C 88.015625 24.015625 87.015625 24.203125 86.585938 24.203125 C 86.585938 24.203125 86.65625 25.054688 88.398438 24.960938 C 90.140625 24.867188 91.023438 22.917969 90.734375 20.390625 C 90.449219 17.859375 88.113281 15.207031 84.824219 15.914062 C 82.40625 16.4375 79.914062 17.472656 78.171875 20.5 C 78.808594 19.457031 79.957031 18.113281 81.628906 18.140625 C 84.34375 18.1875 83.820312 21.492188 82.296875 21.6875 C 80.769531 21.882812 80.472656 20.710938 80.816406 20.128906 C 81.238281 19.421875 82.503906 19.867188 82.457031 20.957031 C 82.457031 20.957031 83.824219 19.964844 82.722656 18.832031 C 81.507812 17.582031 78.65625 19.648438 77.753906 21.304688 C 77.304688 22.242188 76.921875 23.335938 76.621094 24.628906 C 76.621094 24.628906 76.609375 24.367188 76.644531 23.925781 C 76.773438 21.511719 77.582031 17.941406 80.007812 15.960938 C 82.675781 13.785156 84.964844 13.6875 87.445312 13.6875 C 89.925781 13.6875 91.117188 13.167969 91.117188 11.746094 C 91.117188 10.328125 89.875 10.042969 89.449219 10.5625 C 89.449219 10.5625 89.925781 10.753906 89.875 11.464844 C 89.828125 12.175781 88.066406 12.316406 88.304688 10.894531 C 88.542969 9.476562 90.878906 9.378906 91.449219 10.753906 C 91.886719 11.800781 91.679688 13.207031 90.265625 13.855469 C 90.265625 13.855469 90.269531 13.859375 90.269531 13.859375 C 101.21875 14.429688 100.648438 6.871094 98.625 6.871094 C 96.605469 6.871094 98.625 9.007812 98.625 9.007812 C 96.472656 9.078125 96.042969 5.179688 98.984375 5.179688 C 101.929688 5.179688 101.066406 10.21875 101.066406 10.21875 L 102.144531 9.773438 C 101.425781 14.367188 96.113281 14.425781 96.113281 14.425781 C 96.113281 14.425781 99.273438 14.355469 101.066406 17.203125 C 102.859375 20.050781 106.164062 19.773438 106.164062 17.707031 C 106.164062 15.636719 103.003906 13.855469 103.003906 13.855469 C 111.546875 11.503906 110.398438 18.632812 110.398438 18.632812 L 111.902344 17.632812 C 110.324219 23.90625 104.511719 23.195312 104.511719 23.195312 C 104.941406 24.050781 106.664062 24.628906 106.664062 24.628906 Z M 92.882812 12.574219 C 92.882812 12.574219 94.964844 10.898438 95.972656 9.773438 C 96.976562 8.652344 99.988281 11.789062 92.882812 12.574219 Z M 92.882812 12.574219 " clip-rule="nonzero"/></clipPath><clipPath id="ed040b9bd0"><path d="M 74.96875 32.535156 C 78.875 32.535156 74.96875 23.210938 74.96875 23.210938 C 74.96875 23.210938 71.0625 32.535156 74.96875 32.535156 Z M 74.96875 18.40625 C 78.730469 9.796875 85.171875 11.066406 85.171875 11.066406 C 84.722656 9.613281 82.867188 9.523438 82.867188 9.523438 C 78.742188 6.625 76.199219 13.964844 76.199219 13.964844 C 76.445312 10.070312 79.535156 7.710938 79.535156 7.710938 C 78.734375 6.894531 76.683594 7.710938 76.683594 7.710938 C 76.683594 7.710938 77.320312 3.726562 74.96875 3.726562 C 72.617188 3.726562 73.253906 7.710938 73.253906 7.710938 C 73.253906 7.710938 71.203125 6.894531 70.402344 7.710938 C 70.402344 7.710938 73.492188 10.070312 73.738281 13.964844 C 73.738281 13.964844 71.195312 6.625 67.070312 9.523438 C 67.070312 9.523438 65.214844 9.613281 64.761719 11.066406 C 64.761719 11.066406 71.207031 9.796875 74.96875 18.40625 Z M 11.179688 19.925781 C 8.453125 16.65625 6.015625 16.710938 6.015625 16.710938 L 7.019531 19.058594 C 2.640625 17.917969 0.988281 23.890625 0.988281 23.890625 C 0.988281 23.890625 3.359375 21.707031 6.515625 21.707031 C 9.675781 21.707031 15.273438 24.527344 17.710938 24.527344 C 19.003906 24.527344 20.132812 24.527344 20.914062 24.527344 C 17.792969 24.371094 13.609375 22.835938 11.179688 19.925781 Z M 22.019531 24.527344 C 22.019531 24.527344 21.601562 24.527344 20.914062 24.527344 C 21.296875 24.550781 21.671875 24.550781 22.019531 24.527344 Z M 22.144531 23.882812 C 22.222656 23.886719 22.296875 23.890625 22.378906 23.890625 C 22.378906 23.890625 22.292969 23.890625 22.144531 23.882812 Z M 22.144531 23.882812 C 22.019531 23.878906 21.851562 23.871094 21.644531 23.855469 C 21.804688 23.871094 21.972656 23.882812 22.144531 23.882812 Z M 18.574219 18.039062 C 20.152344 18.039062 20.871094 19.621094 20.871094 19.621094 C 20.871094 19.621094 22.402344 17.402344 20.441406 15.710938 C 18.621094 14.140625 13.835938 15.28125 15.058594 19.621094 C 16.015625 23.03125 19.984375 23.714844 21.644531 23.855469 C 17.25 23.394531 17.074219 18.039062 18.574219 18.039062 Z M 31.207031 24.527344 C 31.273438 24.511719 30.96875 24.53125 30.472656 24.558594 C 30.761719 24.585938 31.015625 24.582031 31.207031 24.527344 Z M 25.320312 23.097656 C 24.246094 22.859375 22.019531 23.097656 22.019531 23.097656 C 22.019531 23.097656 24.601562 24.191406 25.824219 24.527344 C 26.699219 24.769531 29.210938 24.632812 30.472656 24.558594 C 28.917969 24.414062 26.230469 23.300781 25.320312 23.097656 Z M 33.933594 24.628906 C 32.496094 24.628906 30.632812 26.472656 30.632812 26.472656 C 30.632812 26.472656 34.746094 27.847656 38.8125 24.628906 C 39.097656 24.402344 35.367188 24.628906 33.933594 24.628906 Z M 31.207031 23.097656 C 27.328125 19.867188 23.3125 19.925781 23.3125 19.925781 C 23.3125 19.925781 25.679688 21.699219 26.683594 22.625 C 27.6875 23.550781 31.207031 23.097656 31.207031 23.097656 Z M 30.203125 18.140625 C 28.296875 13.871094 29.769531 9.535156 29.769531 9.535156 C 25.394531 10.488281 26.757812 16.492188 26.757812 16.492188 C 25.394531 15.492188 23.3125 16.492188 23.3125 16.492188 C 25.03125 16.421875 28.476562 19.488281 31.421875 21.933594 C 34.363281 24.382812 41.757812 23.835938 41.757812 23.835938 C 41.757812 23.835938 32.105469 22.410156 30.203125 18.140625 Z M 40.824219 22.625 C 37.804688 20.453125 35.296875 18.488281 35.726562 20.390625 C 36.15625 22.289062 40.824219 22.625 40.824219 22.625 Z M 57.117188 22.195312 C 57.402344 19.988281 58.34375 18.039062 58.34375 18.039062 C 53.546875 22.382812 56.828125 24.40625 57.117188 22.195312 Z M 57.117188 12.574219 C 57.117188 12.574219 55.035156 10.898438 54.027344 9.773438 C 53.023438 8.652344 50.011719 11.789062 57.117188 12.574219 Z M 56.328125 15.996094 C 56.328125 15.996094 53.527344 15.496094 51.300781 17.707031 C 49.078125 19.914062 46.707031 20.984375 44.554688 20.984375 C 42.402344 20.984375 40.894531 16.992188 43.910156 14.140625 C 43.910156 14.140625 41.742188 14.878906 41.398438 18.488281 C 41.054688 22.101562 45.558594 22.480469 47.425781 21.414062 C 49.292969 20.34375 52.234375 16.351562 56.328125 15.996094 Z M 67.277344 18.832031 C 66.175781 19.964844 67.542969 20.957031 67.542969 20.957031 C 67.496094 19.867188 68.757812 19.421875 69.183594 20.128906 C 69.527344 20.710938 69.230469 21.882812 67.703125 21.6875 C 66.179688 21.492188 65.65625 18.1875 68.371094 18.140625 C 70.042969 18.113281 71.191406 19.457031 71.828125 20.5 C 70.085938 17.472656 67.59375 16.4375 65.175781 15.914062 C 61.886719 15.207031 59.550781 17.859375 59.265625 20.390625 C 58.976562 22.917969 59.859375 24.867188 61.601562 24.960938 C 63.34375 25.054688 63.414062 24.203125 63.414062 24.203125 C 62.984375 24.203125 61.984375 24.015625 61.984375 22.78125 C 61.984375 21.550781 63.207031 21.019531 64.273438 22.023438 C 65.261719 22.957031 64.9375 25.292969 61.839844 25.386719 C 58.738281 25.480469 57.40625 22.070312 58.34375 19.089844 C 59.285156 16.105469 65.039062 13.800781 69.324219 16.765625 C 71.550781 18.304688 72.554688 20.363281 73.007812 21.984375 C 72.53125 19.558594 71.734375 18.277344 70.089844 16.671875 C 67.507812 14.15625 64.722656 14.273438 61.996094 14.222656 C 61.894531 14.410156 58.265625 15.28125 55.96875 18.917969 C 53.671875 22.554688 53.3125 23.695312 51.660156 24.121094 C 51.660156 24.121094 52.234375 21.128906 52.234375 20.914062 C 52.234375 20.699219 49.796875 26.921875 43.335938 24.628906 C 43.335938 24.628906 45.058594 24.050781 45.488281 23.195312 C 45.488281 23.195312 39.675781 23.90625 38.097656 17.632812 L 39.601562 18.632812 C 39.601562 18.632812 38.453125 11.503906 46.996094 13.855469 C 46.996094 13.855469 43.835938 15.636719 43.835938 17.707031 C 43.835938 19.773438 47.140625 20.050781 48.933594 17.203125 C 50.726562 14.355469 53.886719 14.425781 53.886719 14.425781 C 53.886719 14.425781 48.574219 14.367188 47.855469 9.773438 L 48.933594 10.21875 C 48.933594 10.21875 48.070312 5.179688 51.015625 5.179688 C 53.957031 5.179688 53.527344 9.078125 51.375 9.007812 C 51.375 9.007812 53.398438 6.871094 51.375 6.871094 C 49.351562 6.871094 48.78125 14.429688 59.730469 13.859375 C 59.730469 13.859375 59.734375 13.855469 59.734375 13.855469 C 58.320312 13.207031 58.113281 11.800781 58.550781 10.753906 C 59.121094 9.378906 61.457031 9.476562 61.695312 10.894531 C 61.933594 12.316406 60.171875 12.175781 60.125 11.464844 C 60.074219 10.753906 60.550781 10.5625 60.550781 10.5625 C 60.125 10.042969 58.882812 10.328125 58.882812 11.746094 C 58.882812 13.167969 60.074219 13.6875 62.554688 13.6875 C 65.035156 13.6875 67.324219 13.785156 69.992188 15.960938 C 72.417969 17.941406 73.226562 21.511719 73.355469 23.925781 C 73.390625 24.367188 73.378906 24.628906 73.378906 24.628906 C 73.078125 23.335938 72.695312 22.242188 72.246094 21.304688 C 71.34375 19.648438 68.492188 17.582031 67.277344 18.832031 Z M 129.085938 24.527344 C 128.398438 24.527344 127.980469 24.527344 127.980469 24.527344 C 128.328125 24.550781 128.699219 24.550781 129.085938 24.527344 Z M 142.980469 19.058594 L 143.984375 16.710938 C 143.984375 16.710938 141.546875 16.65625 138.820312 19.925781 C 136.390625 22.835938 132.207031 24.371094 129.085938 24.527344 C 129.867188 24.527344 130.996094 24.527344 132.289062 24.527344 C 134.726562 24.527344 140.324219 21.707031 143.484375 21.707031 C 146.640625 21.707031 149.011719 23.890625 149.011719 23.890625 C 149.011719 23.890625 147.359375 17.917969 142.980469 19.058594 Z M 127.855469 23.882812 C 128.027344 23.882812 128.195312 23.871094 128.355469 23.855469 C 128.148438 23.871094 127.980469 23.878906 127.855469 23.882812 Z M 134.941406 19.621094 C 136.164062 15.28125 131.378906 14.140625 129.558594 15.710938 C 127.597656 17.402344 129.128906 19.621094 129.128906 19.621094 C 129.128906 19.621094 129.847656 18.039062 131.425781 18.039062 C 132.925781 18.039062 132.75 23.394531 128.355469 23.855469 C 130.015625 23.714844 133.984375 23.03125 134.941406 19.621094 Z M 127.855469 23.882812 C 127.707031 23.890625 127.621094 23.890625 127.621094 23.890625 C 127.703125 23.890625 127.777344 23.886719 127.855469 23.882812 Z M 118.792969 24.527344 C 118.984375 24.582031 119.238281 24.585938 119.527344 24.558594 C 119.03125 24.53125 118.726562 24.511719 118.792969 24.527344 Z M 124.679688 23.097656 C 123.769531 23.300781 121.082031 24.414062 119.527344 24.558594 C 120.789062 24.632812 123.300781 24.769531 124.175781 24.527344 C 125.398438 24.191406 127.980469 23.097656 127.980469 23.097656 C 127.980469 23.097656 125.753906 22.859375 124.679688 23.097656 Z M 111.1875 24.628906 C 115.253906 27.847656 119.367188 26.472656 119.367188 26.472656 C 119.367188 26.472656 117.503906 24.628906 116.066406 24.628906 C 114.632812 24.628906 110.902344 24.402344 111.1875 24.628906 Z M 123.316406 22.625 C 124.320312 21.699219 126.6875 19.925781 126.6875 19.925781 C 126.6875 19.925781 122.671875 19.867188 118.792969 23.097656 C 118.792969 23.097656 122.3125 23.550781 123.316406 22.625 Z M 126.6875 16.492188 C 126.6875 16.492188 124.605469 15.492188 123.242188 16.492188 C 123.242188 16.492188 124.605469 10.488281 120.230469 9.535156 C 120.230469 9.535156 121.703125 13.871094 119.796875 18.140625 C 117.894531 22.410156 108.242188 23.835938 108.242188 23.835938 C 108.242188 23.835938 115.636719 24.382812 118.578125 21.933594 C 121.523438 19.488281 124.96875 16.421875 126.6875 16.492188 Z M 114.273438 20.390625 C 114.703125 18.488281 112.195312 20.453125 109.175781 22.625 C 109.175781 22.625 113.84375 22.289062 114.273438 20.390625 Z M 91.65625 18.039062 C 91.65625 18.039062 92.597656 19.988281 92.882812 22.195312 C 93.171875 24.40625 96.453125 22.382812 91.65625 18.039062 Z M 108.601562 18.488281 C 108.257812 14.878906 106.089844 14.140625 106.089844 14.140625 C 109.105469 16.992188 107.597656 20.984375 105.445312 20.984375 C 103.292969 20.984375 100.921875 19.914062 98.699219 17.707031 C 96.472656 15.496094 93.671875 15.996094 93.671875 15.996094 C 97.765625 16.351562 100.707031 20.34375 102.574219 21.414062 C 104.441406 22.480469 108.945312 22.101562 108.601562 18.488281 Z M 106.664062 24.628906 C 100.203125 26.921875 97.765625 20.699219 97.765625 20.914062 C 97.765625 21.128906 98.339844 24.121094 98.339844 24.121094 C 96.6875 23.695312 96.328125 22.554688 94.03125 18.917969 C 91.734375 15.28125 88.105469 14.410156 88.003906 14.222656 C 85.28125 14.273438 82.492188 14.15625 79.910156 16.671875 C 78.265625 18.277344 77.46875 19.558594 76.992188 21.984375 C 77.445312 20.363281 78.449219 18.304688 80.675781 16.765625 C 84.960938 13.800781 90.714844 16.105469 91.65625 19.089844 C 92.59375 22.070312 91.257812 25.480469 88.160156 25.386719 C 85.0625 25.292969 84.738281 22.957031 85.726562 22.023438 C 86.792969 21.019531 88.015625 21.550781 88.015625 22.78125 C 88.015625 24.015625 87.015625 24.203125 86.585938 24.203125 C 86.585938 24.203125 86.65625 25.054688 88.398438 24.960938 C 90.140625 24.867188 91.023438 22.917969 90.734375 20.390625 C 90.449219 17.859375 88.113281 15.207031 84.824219 15.914062 C 82.40625 16.4375 79.914062 17.472656 78.171875 20.5 C 78.808594 19.457031 79.957031 18.113281 81.628906 18.140625 C 84.34375 18.1875 83.820312 21.492188 82.296875 21.6875 C 80.769531 21.882812 80.472656 20.710938 80.816406 20.128906 C 81.238281 19.421875 82.503906 19.867188 82.457031 20.957031 C 82.457031 20.957031 83.824219 19.964844 82.722656 18.832031 C 81.507812 17.582031 78.65625 19.648438 77.753906 21.304688 C 77.304688 22.242188 76.921875 23.335938 76.621094 24.628906 C 76.621094 24.628906 76.609375 24.367188 76.644531 23.925781 C 76.773438 21.511719 77.582031 17.941406 80.007812 15.960938 C 82.675781 13.785156 84.964844 13.6875 87.445312 13.6875 C 89.925781 13.6875 91.117188 13.167969 91.117188 11.746094 C 91.117188 10.328125 89.875 10.042969 89.449219 10.5625 C 89.449219 10.5625 89.925781 10.753906 89.875 11.464844 C 89.828125 12.175781 88.066406 12.316406 88.304688 10.894531 C 88.542969 9.476562 90.878906 9.378906 91.449219 10.753906 C 91.886719 11.800781 91.679688 13.207031 90.265625 13.855469 C 90.265625 13.855469 90.269531 13.859375 90.269531 13.859375 C 101.21875 14.429688 100.648438 6.871094 98.625 6.871094 C 96.605469 6.871094 98.625 9.007812 98.625 9.007812 C 96.472656 9.078125 96.042969 5.179688 98.984375 5.179688 C 101.929688 5.179688 101.066406 10.21875 101.066406 10.21875 L 102.144531 9.773438 C 101.425781 14.367188 96.113281 14.425781 96.113281 14.425781 C 96.113281 14.425781 99.273438 14.355469 101.066406 17.203125 C 102.859375 20.050781 106.164062 19.773438 106.164062 17.707031 C 106.164062 15.636719 103.003906 13.855469 103.003906 13.855469 C 111.546875 11.503906 110.398438 18.632812 110.398438 18.632812 L 111.902344 17.632812 C 110.324219 23.90625 104.511719 23.195312 104.511719 23.195312 C 104.941406 24.050781 106.664062 24.628906 106.664062 24.628906 Z M 92.882812 12.574219 C 92.882812 12.574219 94.964844 10.898438 95.972656 9.773438 C 96.976562 8.652344 99.988281 11.789062 92.882812 12.574219 " clip-rule="nonzero"/></clipPath><clipPath id="8dfc3d7cdd"><path d="M 1.242188 -2.390625 L -0.21875 32.484375 L 148.757812 38.652344 L 150.21875 3.773438 Z M 1.242188 -2.390625 " clip-rule="nonzero"/></clipPath><radialGradient gradientTransform="matrix(1.002524, 0.0414902, -0.0417728, 0.995742, 78.863924, 16.715179)" gradientUnits="userSpaceOnUse" r="64.430642" cx="0" id="a0a1bc8c8a" cy="0" fx="0" fy="0"><stop stop-opacity="1" stop-color="rgb(95.503235%, 88.804626%, 37.103271%)" offset="0"/><stop stop-opacity="1" stop-color="rgb(95.303345%, 88.60321%, 36.903381%)" offset="0.0078125"/><stop stop-opacity="1" stop-color="rgb(95.298767%, 88.598633%, 36.717224%)" offset="0.0117188"/><stop stop-opacity="1" stop-color="rgb(95.121765%, 88.421631%, 36.517334%)" offset="0.015625"/><stop stop-opacity="1" stop-color="rgb(94.900513%, 88.021851%, 36.499023%)" offset="0.0195312"/><stop stop-opacity="1" stop-color="rgb(94.659424%, 87.785339%, 36.482239%)" offset="0.0234375"/><stop stop-opacity="1" stop-color="rgb(94.281006%, 87.631226%, 36.282349%)" offset="0.0273438"/><stop stop-opacity="1" stop-color="rgb(94.099426%, 87.295532%, 36.099243%)" offset="0.03125"/><stop stop-opacity="1" stop-color="rgb(94.099426%, 87.098694%, 36.099243%)" offset="0.0429688"/><stop stop-opacity="1" stop-color="rgb(93.910217%, 87.098694%, 35.910034%)" offset="0.046875"/><stop stop-opacity="1" stop-color="rgb(93.710327%, 86.914062%, 35.710144%)" offset="0.0507812"/><stop stop-opacity="1" stop-color="rgb(93.699646%, 86.714172%, 35.519409%)" offset="0.0546875"/><stop stop-opacity="1" stop-color="rgb(93.699646%, 86.523438%, 35.319519%)" offset="0.0585938"/><stop stop-opacity="1" stop-color="rgb(93.499756%, 86.303711%, 35.27832%)" offset="0.0625"/><stop stop-opacity="1" stop-color="rgb(93.299866%, 86.077881%, 35.07843%)" offset="0.0664062"/><stop stop-opacity="1" stop-color="rgb(93.287659%, 85.888672%, 34.899902%)" offset="0.0703125"/><stop stop-opacity="1" stop-color="rgb(93.087769%, 85.688782%, 34.899902%)" offset="0.0742188"/><stop stop-opacity="1" stop-color="rgb(92.89856%, 85.499573%, 34.898376%)" offset="0.078125"/><stop stop-opacity="1" stop-color="rgb(92.89856%, 85.499573%, 34.701538%)" offset="0.0820312"/><stop stop-opacity="1" stop-color="rgb(92.89856%, 85.307312%, 34.501648%)" offset="0.0859375"/><stop stop-opacity="1" stop-color="rgb(92.710876%, 85.107422%, 34.310913%)" offset="0.0898438"/><stop stop-opacity="1" stop-color="rgb(92.510986%, 84.916687%, 34.111023%)" offset="0.09375"/><stop stop-opacity="1" stop-color="rgb(92.498779%, 84.715271%, 34.098816%)" offset="0.0976562"/><stop stop-opacity="1" stop-color="rgb(92.480469%, 84.498596%, 34.075928%)" offset="0.101562"/><stop stop-opacity="1" stop-color="rgb(92.330933%, 84.280396%, 33.876038%)" offset="0.105469"/><stop stop-opacity="1" stop-color="rgb(92.199707%, 84.080505%, 33.699036%)" offset="0.109375"/><stop stop-opacity="1" stop-color="rgb(92.199707%, 83.889771%, 33.68988%)" offset="0.113281"/><stop stop-opacity="1" stop-color="rgb(92.195129%, 83.68988%, 33.48999%)" offset="0.117188"/><stop stop-opacity="1" stop-color="rgb(91.995239%, 83.36792%, 33.16803%)" offset="0.121094"/><stop stop-opacity="1" stop-color="rgb(91.799927%, 83.172607%, 32.972717%)" offset="0.132812"/><stop stop-opacity="1" stop-color="rgb(91.618347%, 83.103943%, 32.904053%)" offset="0.136719"/><stop stop-opacity="1" stop-color="rgb(91.416931%, 82.922363%, 32.899475%)" offset="0.140625"/><stop stop-opacity="1" stop-color="rgb(91.19873%, 82.705688%, 32.876587%)" offset="0.144531"/><stop stop-opacity="1" stop-color="rgb(90.982056%, 82.531738%, 32.676697%)" offset="0.148438"/><stop stop-opacity="1" stop-color="rgb(90.782166%, 82.38678%, 32.499695%)" offset="0.152344"/><stop stop-opacity="1" stop-color="rgb(90.59906%, 82.18689%, 32.493591%)" offset="0.15625"/><stop stop-opacity="1" stop-color="rgb(90.59906%, 81.996155%, 32.342529%)" offset="0.160156"/><stop stop-opacity="1" stop-color="rgb(90.59906%, 81.797791%, 32.199097%)" offset="0.164062"/><stop stop-opacity="1" stop-color="rgb(90.405273%, 81.600952%, 32.199097%)" offset="0.167969"/><stop stop-opacity="1" stop-color="rgb(90.205383%, 81.410217%, 32.009888%)" offset="0.171875"/><stop stop-opacity="1" stop-color="rgb(90.19928%, 81.210327%, 31.809998%)" offset="0.175781"/><stop stop-opacity="1" stop-color="rgb(90.19928%, 81.019592%, 31.799316%)" offset="0.179688"/><stop stop-opacity="1" stop-color="rgb(90.023804%, 80.819702%, 31.799316%)" offset="0.183594"/><stop stop-opacity="1" stop-color="rgb(89.804077%, 80.59845%, 31.599426%)" offset="0.1875"/><stop stop-opacity="1" stop-color="rgb(89.578247%, 80.383301%, 31.399536%)" offset="0.191406"/><stop stop-opacity="1" stop-color="rgb(89.387512%, 80.183411%, 31.387329%)" offset="0.195312"/><stop stop-opacity="1" stop-color="rgb(89.187622%, 79.992676%, 31.187439%)" offset="0.199219"/><stop stop-opacity="1" stop-color="rgb(88.999939%, 79.792786%, 30.999756%)" offset="0.203125"/><stop stop-opacity="1" stop-color="rgb(88.999939%, 79.598999%, 30.999756%)" offset="0.207031"/><stop stop-opacity="1" stop-color="rgb(88.999939%, 79.406738%, 30.807495%)" offset="0.210938"/><stop stop-opacity="1" stop-color="rgb(88.812256%, 79.206848%, 30.607605%)" offset="0.214844"/><stop stop-opacity="1" stop-color="rgb(88.61084%, 79.016113%, 30.41687%)" offset="0.21875"/><stop stop-opacity="1" stop-color="rgb(88.598633%, 78.816223%, 30.215454%)" offset="0.222656"/><stop stop-opacity="1" stop-color="rgb(88.575745%, 78.599548%, 30.175781%)" offset="0.226562"/><stop stop-opacity="1" stop-color="rgb(88.375854%, 78.379822%, 29.975891%)" offset="0.230469"/><stop stop-opacity="1" stop-color="rgb(88.18512%, 78.179932%, 29.798889%)" offset="0.234375"/><stop stop-opacity="1" stop-color="rgb(87.985229%, 77.999878%, 29.798889%)" offset="0.238281"/><stop stop-opacity="1" stop-color="rgb(87.796021%, 77.993774%, 29.794312%)" offset="0.242188"/><stop stop-opacity="1" stop-color="rgb(87.646484%, 77.793884%, 29.594421%)" offset="0.246094"/><stop stop-opacity="1" stop-color="rgb(87.306213%, 77.453613%, 29.205322%)" offset="0.25"/><stop stop-opacity="1" stop-color="rgb(87.106323%, 77.116394%, 29.005432%)" offset="0.261719"/><stop stop-opacity="1" stop-color="rgb(87.001038%, 76.812744%, 28.900146%)" offset="0.269531"/><stop stop-opacity="1" stop-color="rgb(86.801147%, 76.591492%, 28.700256%)" offset="0.273438"/><stop stop-opacity="1" stop-color="rgb(86.694336%, 76.286316%, 28.594971%)" offset="0.277344"/><stop stop-opacity="1" stop-color="rgb(86.495972%, 75.895691%, 28.396606%)" offset="0.285156"/><stop stop-opacity="1" stop-color="rgb(86.299133%, 75.505066%, 28.005981%)" offset="0.292969"/><stop stop-opacity="1" stop-color="rgb(86.108398%, 75.114441%, 27.804565%)" offset="0.300781"/><stop stop-opacity="1" stop-color="rgb(85.809326%, 74.809265%, 27.723694%)" offset="0.308594"/><stop stop-opacity="1" stop-color="rgb(85.598755%, 74.598694%, 27.46582%)" offset="0.3125"/><stop stop-opacity="1" stop-color="rgb(85.395813%, 74.395752%, 27.191162%)" offset="0.320312"/><stop stop-opacity="1" stop-color="rgb(85.195923%, 74.098206%, 27.000427%)" offset="0.328125"/><stop stop-opacity="1" stop-color="rgb(85.005188%, 73.707581%, 26.800537%)" offset="0.335938"/><stop stop-opacity="1" stop-color="rgb(84.814453%, 73.414612%, 26.699829%)" offset="0.34375"/><stop stop-opacity="1" stop-color="rgb(84.707642%, 73.205566%, 26.699829%)" offset="0.347656"/><stop stop-opacity="1" stop-color="rgb(84.686279%, 72.98584%, 26.687622%)" offset="0.351562"/><stop stop-opacity="1" stop-color="rgb(84.480286%, 72.68219%, 26.480103%)" offset="0.355469"/><stop stop-opacity="1" stop-color="rgb(84.089661%, 72.340393%, 26.091003%)" offset="0.363281"/><stop stop-opacity="1" stop-color="rgb(83.699036%, 71.998596%, 25.898743%)" offset="0.371094"/><stop stop-opacity="1" stop-color="rgb(83.500671%, 71.607971%, 25.704956%)" offset="0.378906"/><stop stop-opacity="1" stop-color="rgb(83.309937%, 71.217346%, 25.505066%)" offset="0.386719"/><stop stop-opacity="1" stop-color="rgb(83.110046%, 71.009827%, 25.39978%)" offset="0.394531"/><stop stop-opacity="1" stop-color="rgb(82.992554%, 70.892334%, 25.19989%)" offset="0.398438"/><stop stop-opacity="1" stop-color="rgb(82.792664%, 70.591736%, 25.099182%)" offset="0.40625"/><stop stop-opacity="1" stop-color="rgb(82.626343%, 70.297241%, 25.001526%)" offset="0.414062"/><stop stop-opacity="1" stop-color="rgb(82.476807%, 70.106506%, 24.710083%)" offset="0.421875"/><stop stop-opacity="1" stop-color="rgb(82.398987%, 69.917297%, 24.417114%)" offset="0.429688"/><stop stop-opacity="1" stop-color="rgb(82.298279%, 69.709778%, 24.308777%)" offset="0.433594"/><stop stop-opacity="1" stop-color="rgb(82.098389%, 69.488525%, 24.28894%)" offset="0.4375"/><stop stop-opacity="1" stop-color="rgb(81.993103%, 69.18335%, 24.082947%)" offset="0.441406"/><stop stop-opacity="1" stop-color="rgb(81.793213%, 68.792725%, 23.692322%)" offset="0.449219"/><stop stop-opacity="1" stop-color="rgb(81.407166%, 68.406677%, 23.3078%)" offset="0.464844"/><stop stop-opacity="1" stop-color="rgb(81.207275%, 68.106079%, 23.10791%)" offset="0.472656"/><stop stop-opacity="1" stop-color="rgb(81.089783%, 67.814636%, 22.988892%)" offset="0.476562"/><stop stop-opacity="1" stop-color="rgb(80.784607%, 67.462158%, 22.789001%)" offset="0.484375"/><stop stop-opacity="1" stop-color="rgb(80.493164%, 67.094421%, 22.624207%)" offset="0.492188"/><stop stop-opacity="1" stop-color="rgb(80.39856%, 66.798401%, 22.47467%)" offset="0.5"/><stop stop-opacity="1" stop-color="rgb(80.212402%, 66.513062%, 22.399902%)" offset="0.507812"/><stop stop-opacity="1" stop-color="rgb(80.012512%, 66.313171%, 22.218323%)" offset="0.511719"/><stop stop-opacity="1" stop-color="rgb(79.821777%, 66.122437%, 22.016907%)" offset="0.515625"/><stop stop-opacity="1" stop-color="rgb(79.484558%, 65.783691%, 21.861267%)" offset="0.519531"/><stop stop-opacity="1" stop-color="rgb(79.26178%, 65.560913%, 21.661377%)" offset="0.53125"/><stop stop-opacity="1" stop-color="rgb(79.199219%, 65.306091%, 21.598816%)" offset="0.542969"/><stop stop-opacity="1" stop-color="rgb(79.01001%, 65.104675%, 21.598816%)" offset="0.546875"/><stop stop-opacity="1" stop-color="rgb(78.81012%, 64.91394%, 21.598816%)" offset="0.550781"/><stop stop-opacity="1" stop-color="rgb(78.799438%, 64.71405%, 21.418762%)" offset="0.554688"/><stop stop-opacity="1" stop-color="rgb(78.623962%, 64.523315%, 21.218872%)" offset="0.558594"/><stop stop-opacity="1" stop-color="rgb(78.40271%, 64.303589%, 21.179199%)" offset="0.5625"/><stop stop-opacity="1" stop-color="rgb(78.178406%, 64.073181%, 20.973206%)" offset="0.566406"/><stop stop-opacity="1" stop-color="rgb(77.807617%, 63.693237%, 20.593262%)" offset="0.578125"/><stop stop-opacity="1" stop-color="rgb(77.606201%, 63.311768%, 20.211792%)" offset="0.589844"/><stop stop-opacity="1" stop-color="rgb(77.598572%, 63.111877%, 20.011902%)" offset="0.59375"/><stop stop-opacity="1" stop-color="rgb(77.598572%, 62.921143%, 19.999695%)" offset="0.597656"/><stop stop-opacity="1" stop-color="rgb(77.449036%, 62.702942%, 19.799805%)" offset="0.601562"/><stop stop-opacity="1" stop-color="rgb(77.279663%, 62.532043%, 19.599915%)" offset="0.605469"/><stop stop-opacity="1" stop-color="rgb(77.079773%, 62.385559%, 19.584656%)" offset="0.609375"/><stop stop-opacity="1" stop-color="rgb(76.899719%, 62.185669%, 19.384766%)" offset="0.613281"/><stop stop-opacity="1" stop-color="rgb(76.899719%, 61.994934%, 19.198608%)" offset="0.617188"/><stop stop-opacity="1" stop-color="rgb(76.899719%, 61.795044%, 19.198608%)" offset="0.621094"/><stop stop-opacity="1" stop-color="rgb(76.704407%, 61.599731%, 19.003296%)" offset="0.625"/><stop stop-opacity="1" stop-color="rgb(76.504517%, 61.413574%, 18.803406%)" offset="0.628906"/><stop stop-opacity="1" stop-color="rgb(76.318359%, 61.032104%, 18.617249%)" offset="0.636719"/><stop stop-opacity="1" stop-color="rgb(75.941467%, 60.816956%, 18.417358%)" offset="0.640625"/><stop stop-opacity="1" stop-color="rgb(75.721741%, 60.588074%, 18.199158%)" offset="0.644531"/><stop stop-opacity="1" stop-color="rgb(75.692749%, 60.188293%, 17.993164%)" offset="0.648438"/><stop stop-opacity="1" stop-color="rgb(75.492859%, 59.997559%, 17.793274%)" offset="0.65625"/><stop stop-opacity="1" stop-color="rgb(75.299072%, 59.80072%, 17.599487%)" offset="0.664062"/><stop stop-opacity="1" stop-color="rgb(75.106812%, 59.410095%, 17.454529%)" offset="0.671875"/><stop stop-opacity="1" stop-color="rgb(74.906921%, 59.01947%, 17.304993%)" offset="0.679688"/><stop stop-opacity="1" stop-color="rgb(74.801636%, 58.714294%, 17.201233%)" offset="0.6875"/><stop stop-opacity="1" stop-color="rgb(74.594116%, 58.493042%, 17.001343%)" offset="0.691406"/><stop stop-opacity="1" stop-color="rgb(74.291992%, 58.190918%, 16.896057%)" offset="0.695312"/><stop stop-opacity="1" stop-color="rgb(74.099731%, 57.998657%, 16.697693%)" offset="0.703125"/><stop stop-opacity="1" stop-color="rgb(73.907471%, 57.806396%, 16.500854%)" offset="0.710938"/><stop stop-opacity="1" stop-color="rgb(73.707581%, 57.606506%, 16.316223%)" offset="0.714844"/><stop stop-opacity="1" stop-color="rgb(73.521423%, 57.4646%, 16.116333%)" offset="0.722656"/><stop stop-opacity="1" stop-color="rgb(73.309326%, 57.302856%, 15.887451%)" offset="0.726562"/><stop stop-opacity="1" stop-color="rgb(73.086548%, 57.080078%, 15.487671%)" offset="0.730469"/><stop stop-opacity="1" stop-color="rgb(72.895813%, 56.689453%, 15.296936%)" offset="0.738281"/><stop stop-opacity="1" stop-color="rgb(72.698975%, 56.298828%, 15.098572%)" offset="0.746094"/><stop stop-opacity="1" stop-color="rgb(72.50061%, 55.909729%, 14.900208%)" offset="0.753906"/><stop stop-opacity="1" stop-color="rgb(72.499084%, 55.708313%, 14.898682%)" offset="0.757812"/><stop stop-opacity="1" stop-color="rgb(72.499084%, 55.699158%, 14.717102%)" offset="0.761719"/><stop stop-opacity="1" stop-color="rgb(72.499084%, 55.699158%, 14.517212%)" offset="0.765625"/><stop stop-opacity="1" stop-color="rgb(72.348022%, 55.499268%, 14.477539%)" offset="0.769531"/><stop stop-opacity="1" stop-color="rgb(72.198486%, 55.299377%, 14.277649%)" offset="0.773438"/><stop stop-opacity="1" stop-color="rgb(72.186279%, 55.28717%, 14.099121%)" offset="0.777344"/><stop stop-opacity="1" stop-color="rgb(71.986389%, 55.079651%, 14.091492%)" offset="0.78125"/><stop stop-opacity="1" stop-color="rgb(71.795654%, 54.692078%, 13.891602%)" offset="0.785156"/><stop stop-opacity="1" stop-color="rgb(71.59729%, 54.499817%, 13.699341%)" offset="0.789062"/><stop stop-opacity="1" stop-color="rgb(71.400452%, 54.304504%, 13.504028%)" offset="0.792969"/><stop stop-opacity="1" stop-color="rgb(71.398926%, 54.103088%, 13.304138%)" offset="0.804688"/><stop stop-opacity="1" stop-color="rgb(71.398926%, 53.923035%, 13.299561%)" offset="0.808594"/><stop stop-opacity="1" stop-color="rgb(71.188354%, 53.713989%, 13.09967%)" offset="0.8125"/><stop stop-opacity="1" stop-color="rgb(70.788574%, 53.483582%, 12.89978%)" offset="0.816406"/><stop stop-opacity="1" stop-color="rgb(70.597839%, 53.092957%, 12.898254%)" offset="0.824219"/><stop stop-opacity="1" stop-color="rgb(70.402527%, 52.702332%, 12.702942%)" offset="0.832031"/><stop stop-opacity="1" stop-color="rgb(70.011902%, 52.359009%, 12.503052%)" offset="0.839844"/><stop stop-opacity="1" stop-color="rgb(69.807434%, 52.104187%, 12.5%)" offset="0.847656"/><stop stop-opacity="1" stop-color="rgb(69.787598%, 51.885986%, 12.5%)" offset="0.851562"/><stop stop-opacity="1" stop-color="rgb(69.584656%, 51.585388%, 12.348938%)" offset="0.855469"/><stop stop-opacity="1" stop-color="rgb(69.198608%, 51.199341%, 12.199402%)" offset="0.871094"/><stop stop-opacity="1" stop-color="rgb(69.000244%, 51.000977%, 12.199402%)" offset="0.878906"/><stop stop-opacity="1" stop-color="rgb(68.998718%, 50.813293%, 12.013245%)" offset="0.882812"/><stop stop-opacity="1" stop-color="rgb(68.817139%, 50.613403%, 11.813354%)" offset="0.886719"/><stop stop-opacity="1" stop-color="rgb(68.617249%, 50.59967%, 11.799622%)" offset="0.890625"/><stop stop-opacity="1" stop-color="rgb(68.598938%, 50.39978%, 11.799622%)" offset="0.894531"/><stop stop-opacity="1" stop-color="rgb(68.582153%, 50.18158%, 11.781311%)" offset="0.898438"/><stop stop-opacity="1" stop-color="rgb(68.382263%, 49.969482%, 11.581421%)" offset="0.902344"/><stop stop-opacity="1" stop-color="rgb(68.19458%, 49.581909%, 11.399841%)" offset="0.90625"/><stop stop-opacity="1" stop-color="rgb(67.996216%, 49.195862%, 11.399841%)" offset="0.910156"/><stop stop-opacity="1" stop-color="rgb(67.654419%, 48.999023%, 11.399841%)" offset="0.917969"/><stop stop-opacity="1" stop-color="rgb(67.503357%, 48.808289%, 11.399841%)" offset="0.925781"/><stop stop-opacity="1" stop-color="rgb(67.498779%, 48.509216%, 11.399841%)" offset="0.933594"/><stop stop-opacity="1" stop-color="rgb(67.478943%, 48.298645%, 11.399841%)" offset="0.9375"/><stop stop-opacity="1" stop-color="rgb(67.279053%, 48.182678%, 11.399841%)" offset="0.941406"/><stop stop-opacity="1" stop-color="rgb(67.098999%, 47.982788%, 11.399841%)" offset="0.945312"/><stop stop-opacity="1" stop-color="rgb(67.092896%, 47.795105%, 11.399841%)" offset="0.949219"/><stop stop-opacity="1" stop-color="rgb(66.891479%, 47.644043%, 11.399841%)" offset="0.953125"/><stop stop-opacity="1" stop-color="rgb(66.50238%, 47.302246%, 11.399841%)" offset="0.957031"/><stop stop-opacity="1" stop-color="rgb(66.30249%, 47.102356%, 11.399841%)" offset="0.964844"/><stop stop-opacity="1" stop-color="rgb(66.299438%, 46.920776%, 11.399841%)" offset="0.972656"/><stop stop-opacity="1" stop-color="rgb(66.099548%, 46.708679%, 11.399841%)" offset="0.976562"/><stop stop-opacity="1" stop-color="rgb(65.899658%, 46.577454%, 11.399841%)" offset="0.980469"/><stop stop-opacity="1" stop-color="rgb(65.884399%, 46.374512%, 11.399841%)" offset="0.984375"/><stop stop-opacity="1" stop-color="rgb(65.684509%, 46.084595%, 11.399841%)" offset="0.988281"/><stop stop-opacity="1" stop-color="rgb(65.499878%, 45.899963%, 11.399841%)" offset="1"/></radialGradient></defs><g clip-path="url(#7d0edc1721)"><g clip-path="url(#4ff35b889e)"><g clip-path="url(#ed040b9bd0)"><g clip-path="url(#8dfc3d7cdd)"><path fill="url(#a0a1bc8c8a)" d="M 1.242188 -2.390625 L -0.21875 32.484375 L 148.757812 38.652344 L 150.21875 3.773438 Z M 1.242188 -2.390625 " fill-rule="nonzero"/></g></g></g></g></svg>